<svg width="58" height="43" viewBox="0 0 58 43" fill="none" xmlns="http://www.w3.org/2000/svg">
<g clip-path="url(#clip0_45_36)">
<path d="M8.69074 10.4243H0V19.17H8.69074V10.4243Z" fill="#E6007E"/>
<path d="M33.819 34.2543H57.4287V43H33.819V34.2543ZM44.461 14.2935C47.1395 14.2935 49.3093 16.477 49.3093 19.1724C49.3093 21.8679 47.1395 24.0513 44.461 24.0513H33.819V32.7971H44.461C50.2184 32.7971 55.149 29.162 57.1019 24.0513C57.6827 22.5352 58 20.8908 58 19.1724C58 11.6602 51.9268 5.54779 44.461 5.54779C36.9952 5.54779 30.922 11.6594 30.922 19.1724H39.6128C39.6128 16.477 41.7825 14.2935 44.461 14.2935Z" fill="white"/>
<path d="M18.8319 34.2543H32.3709V43H23.6802C16.2033 43 10.1412 36.8996 10.1412 29.3754V0H18.8319V10.4267H28.9715V19.1724H18.8319V34.2543Z" fill="white"/>
</g>
<defs>
<clipPath id="clip0_45_36">
<rect width="58" height="43" fill="white"/>
</clipPath>
</defs>
</svg>
